<svg width="222.72mm" height="56.153mm" version="1.1" viewBox="0 0 222.72 56.153" xmlns="http://www.w3.org/2000/svg"><g transform="translate(2.882,-59.215)" fill="#fff" stroke-width=".17468" aria-label="大阪府立富田林中学校・高等学校"><path d="m60.858 88.168v-0.85944h-2.746c0.06987-0.64982 0.07686-1.2927 0.08385-1.8656h-0.90835c-7e-3 0.57296 0 1.2088-0.06987 1.8656h-2.5434v0.85944h2.4036c-0.27251 1.2018-0.9363 2.3617-2.5364 3.0744 0.24456 0.17468 0.48911 0.47514 0.62187 0.70572 1.4813-0.71271 2.2359-1.8027 2.6133-2.9696 0.54501 1.3486 1.3555 2.3687 2.6202 2.9626 0.13276-0.23757 0.40526-0.6079 0.61488-0.78258-1.3066-0.53104-2.1521-1.628-2.6133-2.9906z"/><path d="m63.401 85.702-0.11878 0.03494h-1.5162v6.2257h0.7197v-5.4851h0.54501c-0.1118 0.47514-0.25853 1.083-0.39828 1.5232 0.39129 0.46815 0.48213 0.90136 0.48213 1.2228 0 0.19564-0.02795 0.33539-0.10481 0.39129-0.0559 0.04192-0.11878 0.0559-0.19564 0.06289-0.09083 0-0.18167 0-0.30744-7e-3 0.1118 0.19564 0.17468 0.51008 0.18167 0.70572 0.16071 7e-3 0.3284 0 0.44719-0.01398 0.16071-0.02795 0.29347-0.06987 0.40526-0.14673 0.21661-0.15372 0.30744-0.44719 0.30744-0.89438 0-0.40526-0.09084-0.87342-0.51008-1.4045 0.19564-0.54501 0.42623-1.3066 0.6079-1.9006zm3.4308 2.6761c-0.13276 0.552-0.33539 1.0341-0.59392 1.4534-0.30744-0.42623-0.53802-0.92233-0.70572-1.4534zm0.40526-0.77559-0.13975 0.02795h-2.0543v-1.0621h2.7949v-0.75463h-3.5775v2.0403c0 1.076-0.06289 2.5713-0.8245 3.5915 0.17468 0.08385 0.50309 0.34937 0.62886 0.4961 0.59392-0.78258 0.83848-1.9075 0.92932-2.9207 0.19564 0.53802 0.4402 1.0271 0.74066 1.4464-0.34937 0.35635-0.76162 0.62886-1.2298 0.81053 0.1677 0.1677 0.3843 0.48212 0.48213 0.69174 0.48911-0.22359 0.91534-0.51008 1.2857-0.86643 0.35635 0.34937 0.78258 0.63585 1.2787 0.85246 0.11878-0.21661 0.35635-0.53802 0.53802-0.70572-0.4961-0.18167-0.92932-0.44719-1.2927-0.78258 0.47514-0.69174 0.79656-1.5791 0.95726-2.7181z"/><path d="m70.94 86.946c-0.20962 0.6079-0.64283 1.3276-1.1599 1.8307 7e-3 -0.25853 0.01397-0.50309 0.01397-0.7197v-1.1389h5.1217v-0.76861h-2.5364v-0.70572h-0.86642v0.70572h-2.5294v1.9006c0 1.0202-0.04891 2.4735-0.59392 3.4797 0.19564 0.08385 0.55899 0.31443 0.71271 0.46116 0.40526-0.74066 0.57995-1.7678 0.64982-2.7041 0.10481 0.12577 0.20263 0.25154 0.27251 0.34238 0.15372-0.12577 0.30046-0.25853 0.4402-0.41225v2.732h0.78258v-3.7732c0.19564-0.3284 0.37033-0.67078 0.51008-1.0062zm0.73367 2.3128c0.27251 0.41225 0.552 0.97823 0.6638 1.3416l0.69873-0.31443c-0.12577-0.36334-0.40526-0.89438-0.69873-1.2996zm3.2771-1.3416h-0.70572v-0.86643h-0.80354v0.86643h-1.8027v0.76861h1.8027v2.3687c0 0.10481-0.04192 0.13975-0.15372 0.13975-0.12577 0-0.51706 0-0.88739-0.01398 0.1118 0.23058 0.2236 0.57296 0.25154 0.79656 0.56597 7e-3 0.96425-0.01398 1.2368-0.13975 0.27251-0.13276 0.35635-0.34238 0.35635-0.77559v-2.3757h0.70572z"/><path d="m81.687 86.659h-2.5504v-1.2158h-0.86643v1.2158h-2.4805v0.81752h5.8973zm-3.5496 3.7522c-0.06987-0.73367-0.3284-1.8167-0.65681-2.6761l-0.79656 0.20962c0.30744 0.85245 0.552 1.9704 0.60091 2.6971zm1.7888 0.44719c0.30046-0.81752 0.62886-1.9495 0.87342-2.9766l-0.95726-0.17468c-0.14673 1.0062-0.48213 2.3058-0.79656 3.1513h-3.4797v0.83149h6.3235v-0.83149z"/><path d="m85.271 89.978v0.33539h-1.2717v-0.33539zm2.1241 0.33539h-1.3206v-0.33539h1.3206zm-1.3206 0.8804v-0.35635h1.3206v0.35635zm-2.0752 0v-0.35635h1.2717v0.35635zm-0.77559 0.76162h0.77559v-0.16071h3.3958v0.14673h0.81752v-2.5644h-4.989zm1.2298-3.7452h2.4805v0.37033h-2.4805zm-0.75463 0.90835h4.0387v-1.4534h-4.0387zm0.1118-2.2779v0.56597h3.7801v-0.56597zm2.2988-1.0062v-0.39828h-0.85245v0.39828h-2.5224v1.5302h0.78957v-0.83149h4.3461v0.83149h0.83149v-1.5302z"/><path d="m93.069 90.621v-1.5512h1.677v1.5512zm-2.4526-1.5512h1.6071v1.5512h-1.6071zm1.6071-2.3687v1.5372h-1.6071v-1.5372zm2.5224 1.5372h-1.677v-1.5372h1.677zm-4.961-2.3408v5.9881h0.83149v-0.42623h4.1295v0.42623h0.86643v-5.9881z"/><path d="m99.518 88.972c-0.16071-0.19565-0.85246-0.98521-1.0621-1.1948v-0.1118h0.91534v-0.78258h-0.91534v-1.4464h-0.81053v1.4464h-1.104v0.78258h0.98521c-0.23757 0.83848-0.69174 1.7608-1.1809 2.3128 0.13975 0.21661 0.3284 0.56597 0.41225 0.80354 0.33539-0.39828 0.63585-0.97823 0.88739-1.6211v2.7949h0.81053v-3.1373c0.20962 0.30744 0.41924 0.64284 0.54501 0.87342zm3.284-1.3066v-0.78258h-1.2298v-1.4464h-0.83848v1.4464h-1.1459v0.78258h1.0132c-0.32142 0.97124-0.88739 1.9495-1.5372 2.5713 0.15372 0.20263 0.37033 0.52405 0.46815 0.76162 0.45418-0.45418 0.87342-1.125 1.2018-1.8726v2.8299h0.83848v-2.8019c0.23757 0.64982 0.51706 1.2437 0.82451 1.663 0.14673-0.20962 0.42622-0.4961 0.62187-0.64284-0.51008-0.57995-0.98522-1.5512-1.2787-2.5085z"/><path d="m107.09 88.965v-1.5023h1.5791v1.5023zm-2.4526 0v-1.5023h1.5722v1.5023zm2.4526-2.3198v-1.2088h-0.88041v1.2088h-2.4106v3.5216h0.83848v-0.3843h1.5722v2.18h0.88041v-2.18h1.5791v0.34937h0.87342v-3.4867z"/><path d="m111.42 87.274h4.4579v0.96425h0.81752v-1.6979h-0.92931c0.19564-0.24456 0.39828-0.51706 0.58693-0.78957l-0.90136-0.27251c-0.13276 0.3284-0.37033 0.73367-0.60091 1.0621h-1.0551l0.33539-0.13276c-0.0908-0.27949-0.32142-0.70572-0.54501-1.0062l-0.73367 0.26552c0.1677 0.26552 0.34238 0.60091 0.4402 0.87342h-1.097l0.25155-0.11878c-0.1118-0.27251-0.39129-0.64283-0.63585-0.91534l-0.70572 0.31443c0.16769 0.21661 0.35635 0.48911 0.48212 0.7197h-0.95027v1.6979h0.78258zm5.3453 2.0962h-2.6272c0.56597-0.3284 1.111-0.76861 1.5023-1.1948l-0.52405-0.40526-0.18167 0.04192h-3.1373v0.7197h2.3687c-0.1677 0.13975-0.35636 0.27251-0.53803 0.3843h-0.39827v0.45418h-2.6831v0.76861h2.6831v0.90835c0 0.09782-0.0349 0.12577-0.18167 0.12577-0.13975 7e-3 -0.65681 7e-3 -1.104-0.01398 0.12577 0.22359 0.28648 0.57296 0.34238 0.81053 0.59392 0 1.0271-0.01397 1.3555-0.13276 0.34238-0.11878 0.43321-0.33539 0.43321-0.76861v-0.92932h2.6901z"/><path d="m123.83 86.408h-1.5302v-0.97124h-0.81752v0.97124h-1.5093v0.76162h3.857zm-3.8221 2.8718c-0.12578-0.19564-0.67778-1.0271-0.87342-1.2857v-0.35635h0.76162v-0.76861h-0.76162v-1.4324h-0.76861v1.4324h-0.8804v0.76861h0.81752c-0.18866 0.83149-0.57296 1.7888-0.98522 2.3477 0.12578 0.20263 0.30745 0.52405 0.37732 0.75463 0.25154-0.34937 0.48213-0.85245 0.67078-1.3975v2.6133h0.76861v-2.9277c0.16071 0.31443 0.3284 0.64982 0.41924 0.87342zm3.9478-0.61488c-0.19565-0.42623-0.6638-1.0202-1.083-1.4604l-0.64283 0.36334c0.27949 0.31443 0.57994 0.71271 0.79655 1.0691l-0.71271-0.14673c-0.0978 0.39828-0.25154 0.77559-0.46116 1.125-0.22359-0.33539-0.41225-0.69873-0.552-1.083l-0.53802 0.14673c0.29346-0.3284 0.56597-0.73367 0.7686-1.1389l-0.74764-0.30744c-0.2236 0.48911-0.61489 1.0271-1.0341 1.3625 0.18167 0.13276 0.44719 0.36334 0.56598 0.52405 0.0978-0.08385 0.20263-0.17468 0.30045-0.27251 0.19565 0.52405 0.4402 1.0062 0.73367 1.4324-0.43321 0.44719-0.9922 0.81053-1.7049 1.0411 0.13975 0.16071 0.34238 0.47514 0.42623 0.6638 0.7197-0.25853 1.3066-0.62886 1.7678-1.09 0.43321 0.46116 0.95027 0.83149 1.5582 1.083 0.12577-0.23058 0.39129-0.56597 0.57995-0.74066-0.62187-0.20962-1.1529-0.55899-1.5931-0.9922 0.30744-0.4402 0.54501-0.9363 0.71969-1.4743 0.0629 0.10481 0.1118 0.20962 0.15372 0.30046z"/><path d="m126.73 88.699c0 0.48911 0.40527 0.89438 0.89438 0.89438 0.48912 0 0.89438-0.40526 0.89438-0.89438s-0.40526-0.89438-0.89438-0.89438c-0.48911 0-0.89438 0.40526-0.89438 0.89438z"/><path d="m135.21 90.831h-1.2088v-0.45418h1.2088zm2.2359-2.0124h-5.6038v3.1443h0.81054v-2.4526h3.9548v1.5582c0 0.08385-0.028 0.10481-0.13276 0.1118-0.0769 7e-3 -0.29346 7e-3 -0.53103 0v-1.3555h-2.6692v1.8796h0.72668v-0.31443h1.8027c0.0769 0.18167 0.13975 0.39828 0.16071 0.55899 0.50309 0 0.87342-7e-3 1.132-0.13276 0.2725-0.12577 0.34936-0.34937 0.34936-0.73367zm-1.7678-0.85245h-2.18v-0.42623h2.18zm-2.9696-0.97823v1.5372h3.8151v-1.5372zm2.2849-0.97124v-0.58694h-0.84547v0.58694h-2.5853v0.70572h6.1069v-0.70572z"/><path d="m144.79 89.224v-0.70572h-2.76v-0.39828h2.1172v-0.68476h-2.1172v-0.27949c0.14674-0.15372 0.2795-0.33539 0.41225-0.53802h0.27251c0.18167 0.25154 0.35635 0.54501 0.43321 0.74066l0.71271-0.30046c-0.0559-0.11878-0.15372-0.27949-0.26552-0.4402h1.1599v-0.67777h-1.9285c0.0559-0.11878 0.11179-0.24456 0.14673-0.35635l-0.79655-0.20263c-0.13975 0.39828-0.37033 0.80354-0.64983 1.125v-0.56597h-1.5302c0.0629-0.11878 0.11878-0.23058 0.16769-0.34937l-0.79655-0.20962c-0.24456 0.59392-0.65681 1.1948-1.111 1.5721 0.18866 0.09782 0.53104 0.3284 0.69175 0.46116 0.20962-0.21661 0.4402-0.48911 0.64982-0.79656h0.0699c0.13276 0.25154 0.27251 0.53802 0.32142 0.73367l0.71271-0.29347c-0.0419-0.11878-0.11879-0.27949-0.20962-0.4402h0.9363c-0.0769 0.08385-0.16071 0.1677-0.25154 0.23757 0.10481 0.0559 0.25853 0.15372 0.40526 0.24456h-0.41924v0.33539h-2.0263v0.68476h2.0263v0.39828h-2.732v0.70572h4.1086v0.41924h-3.843v0.69873h1.2857l-0.37032 0.27949c0.40526 0.30046 0.85944 0.73367 1.0551 1.0481l0.64284-0.51706c-0.17469-0.24456-0.51008-0.55899-0.84547-0.81053h2.0752v0.74066c0 0.08385-0.0349 0.1118-0.14674 0.1118-0.11179 0-0.53103 0-0.88739-0.01398 0.1118 0.21661 0.25155 0.53802 0.30046 0.77559 0.51706 0 0.91534-7e-3 1.2088-0.12577 0.30045-0.12577 0.3843-0.32142 0.3843-0.73367v-0.75463h1.1809v-0.69873h-1.1809v-0.41924z"/><path d="m146.36 87.274h4.4579v0.96425h0.81751v-1.6979h-0.92931c0.19564-0.24456 0.39828-0.51706 0.58693-0.78957l-0.90136-0.27251c-0.13276 0.3284-0.37033 0.73367-0.60091 1.0621h-1.0551l0.33539-0.13276c-0.0908-0.27949-0.32141-0.70572-0.54501-1.0062l-0.73367 0.26552c0.1677 0.26552 0.34238 0.60091 0.4402 0.87342h-1.097l0.25155-0.11878c-0.1118-0.27251-0.39129-0.64283-0.63585-0.91534l-0.70572 0.31443c0.16769 0.21661 0.35635 0.48911 0.48212 0.7197h-0.95027v1.6979h0.78258zm5.3453 2.0962h-2.6272c0.56597-0.3284 1.111-0.76861 1.5023-1.1948l-0.52405-0.40526-0.18167 0.04192h-3.1373v0.7197h2.3687c-0.1677 0.13975-0.35635 0.27251-0.53802 0.3843h-0.39828v0.45418h-2.6831v0.76861h2.6831v0.90835c0 0.09782-0.0349 0.12577-0.18167 0.12577-0.13975 7e-3 -0.65681 7e-3 -1.104-0.01398 0.12577 0.22359 0.28648 0.57296 0.34238 0.81053 0.59392 0 1.0271-0.01397 1.3555-0.13276 0.34238-0.11878 0.43321-0.33539 0.43321-0.76861v-0.92932h2.6901z"/><path d="m158.76 86.408h-1.5302v-0.97124h-0.81751v0.97124h-1.5093v0.76162h3.857zm-3.8221 2.8718c-0.12577-0.19564-0.67777-1.0271-0.87342-1.2857v-0.35635h0.76162v-0.76861h-0.76162v-1.4324h-0.7686v1.4324h-0.88041v0.76861h0.81752c-0.18866 0.83149-0.57296 1.7888-0.98521 2.3477 0.12577 0.20263 0.30744 0.52405 0.37731 0.75463 0.25155-0.34937 0.48213-0.85245 0.67079-1.3975v2.6133h0.7686v-2.9277c0.16071 0.31443 0.32841 0.64982 0.41924 0.87342zm3.9478-0.61488c-0.19564-0.42623-0.66379-1.0202-1.083-1.4604l-0.64284 0.36334c0.27949 0.31443 0.57995 0.71271 0.79656 1.0691l-0.71271-0.14673c-0.0978 0.39828-0.25155 0.77559-0.46116 1.125-0.2236-0.33539-0.41226-0.69873-0.552-1.083l-0.53803 0.14673c0.29347-0.3284 0.56598-0.73367 0.76861-1.1389l-0.74765-0.30744c-0.22359 0.48911-0.61488 1.0271-1.0341 1.3625 0.18167 0.13276 0.44719 0.36334 0.56597 0.52405 0.0978-0.08385 0.20264-0.17468 0.30046-0.27251 0.19564 0.52405 0.4402 1.0062 0.73367 1.4324-0.43322 0.44719-0.9922 0.81053-1.7049 1.0411 0.13975 0.16071 0.34238 0.47514 0.42623 0.6638 0.71969-0.25853 1.3066-0.62886 1.7678-1.09 0.43321 0.46116 0.95028 0.83149 1.5582 1.083 0.12578-0.23058 0.3913-0.56597 0.57995-0.74066-0.62187-0.20962-1.1529-0.55899-1.5931-0.9922 0.30744-0.4402 0.54501-0.9363 0.7197-1.4743 0.0629 0.10481 0.11179 0.20962 0.15372 0.30046z"/></g><g transform="matrix(.068392 .0076485 -.0076485 .068392 183.66 2.663)"><g transform="rotate(15.444,363.09,-1484.5)"><g fill="#6b8e23"><path d="m93.897 391.25-24.474-148.59 125.47 36.882-100.99 111.71z" fill="#fff"/></g><g fill="#4682b4"><path d="m257.66 429.64-42.438-144.49 129.03 21.284-86.594 123.21z" fill="#fff" fill-opacity=".7"/></g><g fill="#6b8e23"><path d="m432.75 451.26-57.722-139.09 130.57 7.291-72.85 131.8z" fill="#fff"/></g><g fill="#4682b4"><path d="m613.23 447.99-74.755-130.73 130.45-9.1863-55.697 139.92z" fill="#fff" fill-opacity=".7"/></g><g fill="#6b8e23"><path d="m793.64 420.62-91.168-119.86 128.14-26.122-36.973 145.98z" fill="#fff"/></g><g fill="#4682b4"><path d="m958.25 375.25-103.82-109.08 124.48-40.088-20.655 149.17z" fill="#fff" fill-opacity=".7"/></g><path d="m36.313 231.17c321.24 116.01 637 117.65 970.99-17.752" fill="none" stroke="#fff" stroke-linecap="round" stroke-linejoin="round" stroke-width="4.6136"/></g></g><g transform="matrix(-.068392 .0076485 .0076485 .068392 39.062 2.663)"><g transform="rotate(15.444,363.09,-1484.5)"><g fill="#6b8e23"><path d="m93.897 391.25-24.474-148.59 125.47 36.882-100.99 111.71z" fill="#fff"/></g><g fill="#4682b4"><path d="m257.66 429.64-42.438-144.49 129.03 21.284-86.594 123.21z" fill="#fff" fill-opacity=".7"/></g><g fill="#6b8e23"><path d="m432.75 451.26-57.722-139.09 130.57 7.291-72.85 131.8z" fill="#fff"/></g><g fill="#4682b4"><path d="m613.23 447.99-74.755-130.73 130.45-9.1863-55.697 139.92z" fill="#fff" fill-opacity=".7"/></g><g fill="#6b8e23"><path d="m793.64 420.62-91.168-119.86 128.14-26.122-36.973 145.98z" fill="#fff"/></g><g fill="#4682b4"><path d="m958.25 375.25-103.82-109.08 124.48-40.088-20.655 149.17z" fill="#fff" fill-opacity=".7"/></g><path d="m36.313 231.17c321.24 116.01 637 117.65 970.99-17.752" fill="none" stroke="#fff" stroke-linecap="round" stroke-linejoin="round" stroke-width="4.6136"/></g></g><g fill="#fff" stroke-width=".3628" aria-label="とんこう地域フォーラム2024"><path d="m17.101 37.656 2.3945-0.37731q0.34828 2.0752 0.81267 3.9908 2.2639-0.94327 5.471-1.6544l0.43536 2.1042q-3.9182 0.87071-5.9209 1.9591-1.9881 1.0739-1.9881 2.0752 0 0.84169 0.69657 1.2625 0.71108 0.40633 2.2348 0.40633 2.3219 0 4.8034-0.40633l0.2467 2.1042q-2.4235 0.40633-5.0501 0.40633-5.3984 0-5.3984-3.657 0-1.9156 2.2348-3.4248-0.59499-2.496-0.9723-4.7889z"/><path d="m35.862 37.715q-0.91425 2.2493-1.9301 4.8615l0.02902 0.02902q0.76913-0.43536 1.3061-0.43536 0.9723 0 1.4947 0.71108 0.52243 0.71108 0.74011 2.4525 0.13061 1.0739 0.30475 1.4367 0.17414 0.3628 0.44987 0.3628 0.75462 0 1.5528-3.0185l2.0317 0.55145q-0.71108 2.6992-1.5528 3.7296-0.82718 1.0158-2.0897 1.0158-1.2335 0-1.9156-0.75462-0.66755-0.75462-0.94327-2.5831-0.14512-0.94327-0.31926-1.2916-0.17414-0.34829-0.44987-0.34829-0.63852 0-1.4077 1.1319-0.76913 1.1174-2.0026 4.0924l-2.0897-0.74011q2.8879-7.4301 4.6438-11.827z"/><path d="m45.349 40.138v-2.0462h8.7071v2.0462zm-1.3061 6.095q0-0.81267 0.50792-1.6834 0.52243-0.87071 1.814-2.1187l1.7269 1.2625q-1.6398 1.5818-1.6398 2.3074 0 0.63852 0.81267 1.0158 0.81267 0.37731 2.3945 0.37731 0.94327 0 2.38-0.20317 1.4367-0.21768 2.4525-0.4934l0.43536 2.1042q-1.0158 0.29024-2.5831 0.4934-1.5528 0.20317-2.6847 0.20317-2.6267 0-4.1214-0.88523-1.4947-0.89974-1.4947-2.38z"/><path d="m58.189 42.054q1.6834-0.43536 3.5699-0.71108t3.1636-0.27573q2.2639 0 3.3958 0.87071 1.1464 0.8562 1.1464 2.3654 0 2.2203-2.0607 3.5699-2.0607 1.3496-6.2111 1.6544l-0.3628-2.0607q6.2837-0.63852 6.2837-3.0475 0-0.65304-0.56596-0.94327-0.56596-0.30475-1.7559-0.30475-2.0462 0-6.1095 0.92876zm2.0317-2.6702 0.2467-2.0462q3.5409 0.46438 6.9367 0.46438v2.1042q-3.0765 0-7.1834-0.52243z"/><path d="m83.044 45.522q-0.20317 0-1.0158-0.02902l-0.42084-1.9591q0.13061 0 0.39182 0.02902 0.26122 0.01451 0.33377 0.01451 0.08707 0 0.1161-0.02902 0.04354-0.04354 0.08707-0.29024 0.04354-0.2467 0.05805-0.7256t0.02902-1.4077l-1.161 0.23219v5.1662h-1.9301v-4.7889l-0.76913 0.15963v5.6016q0 0.42084 0.29024 0.4934 0.29024 0.07256 1.9446 0.07256 0.43536 0 0.62401 0t0.46438-0.04354 0.34828-0.07256q0.08707-0.04354 0.23219-0.20317 0.14512-0.15963 0.17414-0.29024 0.02902-0.14512 0.08707-0.46438 0.05805-0.33377 0.07256-0.62401t0.04354-0.84169zm-8.3298-8.4169v2.6557h1.2045v0.59499l0.69657-0.14512v-2.6267h2.1478v2.2058l0.76913-0.14512v-2.7863h1.9301v2.3945l3.2216-0.62401v1.1319q0 3.2216-0.21768 4.3826-0.21768 1.1464-0.78364 1.3206l1.4512 0.33377q-0.04354 0.84169-0.08707 1.3351-0.02902 0.4934-0.14512 1.0013-0.1161 0.50792-0.23219 0.75462-0.10158 0.26121-0.40633 0.50792-0.29024 0.2467-0.56596 0.33377-0.26121 0.10158-0.82718 0.17414-0.56596 0.08707-1.1029 0.08707-0.52243 0.01451-1.4367 0.01451-0.92876 0-1.4802-0.02902-0.53694-0.01451-1.0013-0.10158-0.46438-0.08707-0.68206-0.20317-0.20317-0.10158-0.34829-0.3628-0.14512-0.26121-0.17414-0.55145-0.02902-0.27573-0.02902-0.78364v-5.6451l-1.1755 0.23219-0.10158-0.91425h-0.62401v4.9921q0.47889-0.15963 1.277-0.44987l0.05805 1.9446q-2.2493 0.92876-4.5422 1.4367l-0.20317-2.0172q0.08707-0.01451 0.52243-0.1161 0.43536-0.10158 0.68206-0.15963v-5.6306h-1.1319v-1.8865h1.1319v-2.6557z"/><path d="m88.787 46.131q0.76913-0.29024 0.89974-0.34828v-3.8166h-0.89974zm6.2982 0.17414q-0.4934-2.3364-0.6095-6.1821h-4.6873v0.79815h4.4406v4.8905h-4.3826l0.08707 1.3786q2.8153-0.53694 4.5277-1.2916l0.13061 0.9723q0.23219-0.23219 0.4934-0.56596zm-2.5396-2.0897v-1.6979h-1.0449v1.6979zm-5.9499-7.1108h2.1913v2.9749h0.6095v-1.7995h5.0356v-1.4947h2.0897q0 0.26121 0 0.76913 0.01451 0.4934 0.01451 0.7256h0.63852q-0.3628-0.94327-0.50792-1.277l1.4222-0.50792q0.40633 0.89974 0.71108 1.785h0.40633v1.843h-2.6412q0.05805 1.5383 0.18866 3.1926 0.34828-0.89974 0.74011-2.1913l1.6979 0.84169q-0.91425 2.9169-1.9736 4.6728 0.26121 1.0884 0.46438 1.0884 0.13061 0 0.27573-2.1187l1.4657 0.62401q-0.08707 2.0172-0.53694 2.9314-0.43536 0.91425-1.0884 0.91425-1.3061 0-2.0317-1.5383-0.7256 0.76913-1.8285 1.5383l-1.2045-1.6544q-1.3496 0.44987-3.1055 0.76913l-0.20317-1.4222q-1.9591 0.84169-3.7731 1.2625l-0.26121-1.9301q0.50792-0.10158 1.2045-0.29024v-4.847h-1.1464v-1.8865h1.1464z"/><path d="m101.03 38.237h11.29v0.37731q0 5.1662-2.3654 7.7348-2.3654 2.5686-7.343 3.004l-0.43535-2.1623q3.715-0.33377 5.4855-1.872 1.7704-1.5528 2.1042-4.8615h-8.7362z"/><path d="m116.14 41.197h5.6016v-1.6689h1.9881v1.6689h2.1042v1.785h-2.1042v4.1649q0 0.81267-0.058 1.19-0.0435 0.37731-0.30475 0.62401-0.26122 0.2467-0.65304 0.29024-0.39182 0.04353-1.2335 0.04353-0.74011 0-1.9301-0.1161l0.11609-1.6979q1.161 0.1161 1.6108 0.1161 0.31927 0 0.39182-0.07256 0.0726-0.07256 0.0726-0.39182v-2.409q-2.2929 1.9591-4.7744 3.3668l-0.94327-1.5963q2.438-1.3351 4.8615-3.5119h-4.7454z"/><path d="m129.06 44.68v-2.3509h12.103v2.3509z"/><path d="m143.48 41.633h11.566v0.39182q0 3.5699-2.2493 5.4274-2.2348 1.8575-6.9512 2.0752l-0.37731-2.1042q3.062-0.14512 4.7599-1.0158 1.6979-0.88523 2.1913-2.6702h-8.9393zm1.0448-1.7124v-2.1042h9.6649v2.1042z"/><path d="m165.1 42.837 2.1478-0.94327q1.6834 3.5119 2.9894 6.5884l-2.2203 0.88523q-0.10159-0.23219-0.30475-0.68206-0.18866-0.46438-0.27573-0.66755-5.0792 0.74011-10.1 0.92876l-0.0726-2.1042q0.43536-0.01451 1.4076-0.07256 1.6834-4.6003 2.7863-9.2731l2.3945 0.43536q-0.98681 4.3681-2.5251 8.6491 2.409-0.20317 5.2243-0.59499-0.56597-1.248-1.4512-3.1491z"/><path d="m174.98 46.712v0.02902h4.0053v1.9881h-7.256v-1.9881q2.8588-2.1913 3.7586-3.2652 0.91425-1.0884 0.91425-2.1042 0-1.3351-1.4802-1.3351-1.19 0-2.9749 0.81267v-2.2493q1.5673-0.6095 3.3377-0.6095 1.7559 0 2.6992 0.84169 0.95778 0.82718 0.95778 2.3074 0 1.277-0.81267 2.4525-0.79815 1.161-3.1491 3.1201z"/><path d="m181.31 39.267q1.0448-1.277 3.1781-1.277t3.1636 1.277q1.0448 1.277 1.0448 4.1649t-1.0448 4.1649q-1.0304 1.277-3.1636 1.277t-3.1781-1.277q-1.0304-1.277-1.0304-4.1649t1.0304-4.1649zm1.8865 6.9367q0.42085 0.79815 1.2916 0.79815 0.87072 0 1.277-0.79815 0.42085-0.79816 0.42085-2.7718 0-1.9736-0.42085-2.7718-0.40633-0.79816-1.277-0.79816-0.87071 0-1.2916 0.79816-0.40633 0.79815-0.40633 2.7718 0 1.9736 0.40633 2.7718z"/><path d="m193.32 46.712v0.02902h4.0053v1.9881h-7.256v-1.9881q2.8588-2.1913 3.7586-3.2652 0.91425-1.0884 0.91425-2.1042 0-1.3351-1.4802-1.3351-1.19 0-2.9749 0.81267v-2.2493q1.5673-0.6095 3.3377-0.6095 1.7559 0 2.6992 0.84169 0.95779 0.82718 0.95779 2.3074 0 1.277-0.81267 2.4525-0.79815 1.161-3.1491 3.1201z"/><path d="m202.99 44.767v-3.6425h-0.029l-2.5106 3.6135v0.02902zm2.3509 0h1.5383v1.9301h-1.5383v2.0317h-2.3509v-2.0317h-4.7164v-1.9301l4.7164-6.6319h2.3509z"/></g></svg>
